<svg width="54" height="54" viewBox="0 0 54 54" fill="none" xmlns="http://www.w3.org/2000/svg">
<g filter="url(#filter0_d_1_537)">
<g clip-path="url(#clip0_1_537)">
<rect x="1" y="1" width="52" height="52" rx="16" fill="white" fill-opacity="0.07" shape-rendering="crispEdges"/>
<path d="M14.5304 25.633C14.5674 23.9011 14.5979 22.47 14.7995 21.3104L17.4569 22.678C17.3379 22.6359 17.2465 22.6325 17.1641 22.678C16.9906 22.7736 16.9791 23.0132 16.9563 23.4925C16.9255 24.1384 16.9088 24.8872 16.8899 25.7725C16.8654 26.9183 16.8654 27.5109 16.8899 28.6568C16.9292 30.5005 16.9591 31.752 17.1266 32.7152C17.2843 33.6221 17.5474 34.161 17.9974 34.6123C18.4429 35.0587 18.9891 35.3264 19.9266 35.4895C20.9172 35.6618 22.2092 35.6972 24.1035 35.7448C26.3753 35.8018 28.053 35.8018 30.3249 35.7447C32.2192 35.6972 33.5113 35.6618 34.5019 35.4895C35.4393 35.3264 35.9855 35.0587 36.431 34.6123C36.881 34.161 37.1442 33.6221 37.3018 32.7152C37.4693 31.752 37.4992 30.5003 37.5386 28.6567C37.563 27.5109 37.563 26.9183 37.5386 25.7725C37.5196 24.8871 37.5029 24.1382 37.4721 23.4922C37.4492 23.013 37.4377 22.7734 37.2643 22.6777C37.1816 22.6322 37.0901 22.6357 36.9707 22.678L39.6288 21.3104C39.8305 22.47 39.8611 23.9011 39.8979 25.633L39.8998 25.7221C39.925 26.9015 39.925 27.5277 39.8998 28.7071L39.8979 28.7962C39.8611 30.5281 39.8306 31.9592 39.6288 33.1188C39.4141 34.3544 38.9899 35.3891 38.1042 36.2771C37.2138 37.1697 36.1626 37.595 34.9071 37.8134C33.7241 38.0192 32.2564 38.056 30.4726 38.1007L30.3842 38.1029C28.0728 38.1609 26.3556 38.1609 24.0442 38.103L23.9557 38.1007C22.172 38.056 20.7043 38.0192 19.5213 37.8134C18.2658 37.595 17.2146 37.1697 16.3242 36.2771C15.4385 35.3891 15.0144 34.3545 14.7995 33.1188C14.5979 31.9592 14.5674 30.5281 14.5304 28.7962L14.5285 28.7071C14.5034 27.5277 14.5033 26.9015 14.5285 25.7221L14.5304 25.633Z" fill="#F9A876"/>
<path opacity="0.4" d="M24.0454 16.3266C26.3567 16.2686 28.074 16.2686 30.3853 16.3266L30.4738 16.3288C32.2575 16.3735 33.7252 16.4103 34.9082 16.6161C35.3459 16.6922 35.7586 16.7934 36.1484 16.9308C36.252 16.9552 36.3515 16.9934 36.4441 17.044C37.0538 17.2967 37.605 17.6508 38.1054 18.1524C38.9911 19.0404 39.4152 20.0751 39.6301 21.3107L36.9718 22.6782C36.8405 22.7248 36.6755 22.8183 36.4519 22.9449L31.446 25.7813C29.9101 26.6516 28.611 27.2149 27.2151 27.2149C25.8191 27.2149 24.5202 26.6516 22.9843 25.7813L17.9788 22.9452C17.7548 22.8183 17.5896 22.7247 17.4581 22.6782L14.8007 21.3107C15.0155 20.0751 15.4396 19.0404 16.3253 18.1524C17.2157 17.2597 18.267 16.8344 19.5225 16.6161C20.7054 16.4103 22.1731 16.3735 23.9569 16.3288L24.0454 16.3266Z" fill="#F9A876"/>
<g filter="url(#filter1_f_1_537)">
<circle cx="26.4999" cy="29.4999" r="6.5" fill="#F9A876"/>
</g>
</g>
</g>
<defs>
<filter id="filter0_d_1_537" x="0" y="0" width="54" height="54" filterUnits="userSpaceOnUse" color-interpolation-filters="sRGB">
<feFlood flood-opacity="0" result="BackgroundImageFix"/>
<feColorMatrix in="SourceAlpha" type="matrix" values="0 0 0 0 0 0 0 0 0 0 0 0 0 0 0 0 0 0 127 0" result="hardAlpha"/>
<feMorphology radius="1" operator="dilate" in="SourceAlpha" result="effect1_dropShadow_1_537"/>
<feOffset/>
<feComposite in2="hardAlpha" operator="out"/>
<feColorMatrix type="matrix" values="0 0 0 0 0.176471 0 0 0 0 0.180392 0 0 0 0 0.282353 0 0 0 1 0"/>
<feBlend mode="normal" in2="BackgroundImageFix" result="effect1_dropShadow_1_537"/>
<feBlend mode="normal" in="SourceGraphic" in2="effect1_dropShadow_1_537" result="shape"/>
</filter>
<filter id="filter1_f_1_537" x="2.39988" y="5.39988" width="48.2" height="48.2" filterUnits="userSpaceOnUse" color-interpolation-filters="sRGB">
<feFlood flood-opacity="0" result="BackgroundImageFix"/>
<feBlend mode="normal" in="SourceGraphic" in2="BackgroundImageFix" result="shape"/>
<feGaussianBlur stdDeviation="8.8" result="effect1_foregroundBlur_1_537"/>
</filter>
<clipPath id="clip0_1_537">
<rect x="1" y="1" width="52" height="52" rx="16" fill="white"/>
</clipPath>
</defs>
</svg>
