<svg width="54" height="54" viewBox="0 0 54 54" fill="none" xmlns="http://www.w3.org/2000/svg">
<g filter="url(#filter0_d_1_546)">
<rect x="1" y="1" width="52" height="52" rx="16" fill="white" fill-opacity="0.07" shape-rendering="crispEdges"/>
<path fill-rule="evenodd" clip-rule="evenodd" d="M22.4548 26.5876C22.8009 26.2414 23.3621 26.2414 23.7083 26.5876L24.2633 27.1426L24.8184 26.5876C25.1645 26.2414 25.7258 26.2414 26.0719 26.5876C26.4181 26.9337 26.4181 27.4949 26.0719 27.841L25.5168 28.3961L26.0719 28.9512C26.4181 29.2974 26.4181 29.8585 26.0719 30.2047C25.7258 30.5508 25.1645 30.5508 24.8184 30.2047L24.2633 29.6497L23.7083 30.2047C23.3621 30.5508 22.8009 30.5508 22.4548 30.2047C22.1086 29.8585 22.1086 29.2974 22.4548 28.9512L23.0098 28.3961L22.4548 27.841C22.1086 27.4949 22.1086 26.9337 22.4548 26.5876Z" fill="#78B8FA"/>
<path fill-rule="evenodd" clip-rule="evenodd" d="M16.5446 26.5876C16.8908 26.2414 17.452 26.2414 17.7981 26.5876L18.3532 27.1426L18.9082 26.5876C19.2544 26.2414 19.8156 26.2414 20.1618 26.5876C20.5079 26.9337 20.5079 27.4949 20.1618 27.841L19.6067 28.3961L20.1618 28.9512C20.5079 29.2974 20.5079 29.8585 20.1618 30.2047C19.8156 30.5508 19.2544 30.5508 18.9082 30.2047L18.3532 29.6497L17.7981 30.2047C17.452 30.5508 16.8908 30.5508 16.5446 30.2047C16.1985 29.8585 16.1985 29.2974 16.5446 28.9512L17.0997 28.3961L16.5446 27.841C16.1985 27.4949 16.1985 26.9337 16.5446 26.5876Z" fill="#78B8FA"/>
<path fill-rule="evenodd" clip-rule="evenodd" d="M28.363 26.5876C28.7091 26.2414 29.2704 26.2414 29.6165 26.5876L30.1716 27.1426L30.7266 26.5876C31.0728 26.2414 31.634 26.2414 31.9802 26.5876C32.3263 26.9337 32.3263 27.4949 31.9802 27.841L31.4251 28.3961L31.9802 28.9512C32.3263 29.2974 32.3263 29.8585 31.9802 30.2047C31.634 30.5508 31.0728 30.5508 30.7266 30.2047L30.1716 29.6497L29.6165 30.2047C29.2704 30.5508 28.7091 30.5508 28.363 30.2047C28.0168 29.8585 28.0168 29.2974 28.363 28.9512L28.9181 28.3961L28.363 27.841C28.0168 27.4949 28.0168 26.9337 28.363 26.5876Z" fill="#78B8FA"/>
<path fill-rule="evenodd" clip-rule="evenodd" d="M34.2731 26.5876C34.6193 26.2414 35.1805 26.2414 35.5267 26.5876L36.0818 27.1426L36.6368 26.5876C36.9829 26.2414 37.5442 26.2414 37.8903 26.5876C38.2365 26.9337 38.2365 27.4949 37.8903 27.841L37.3352 28.3961L37.8903 28.9512C38.2365 29.2974 38.2365 29.8585 37.8903 30.2047C37.5442 30.5508 36.9829 30.5508 36.6368 30.2047L36.0818 29.6497L35.5267 30.2047C35.1805 30.5508 34.6193 30.5508 34.2731 30.2047C33.927 29.8585 33.927 29.2974 34.2731 28.9512L34.8282 28.3961L34.2731 27.841C33.927 27.4949 33.927 26.9337 34.2731 26.5876Z" fill="#78B8FA"/>
<g filter="url(#filter1_f_1_546)">
<circle cx="28.4998" cy="28.4998" r="6.5" fill="#78B9F9"/>
</g>
<g opacity="0.4">
<path d="M22.2023 15.9107C23.6111 15.1808 25.2265 14.5096 27.2135 14.5096C29.2004 14.5096 30.8165 15.1808 32.226 15.9107C32.6518 16.1312 33.0475 16.3493 33.4257 16.5578C34.351 17.068 35.1713 17.5202 36.0719 17.8074C36.6005 17.976 37.0686 18.1253 37.4007 18.2553C37.7132 18.3778 38.0845 18.5455 38.3481 18.8384C38.5849 19.1014 38.7065 19.3968 38.7871 19.6793C38.8604 19.9357 38.9229 20.283 38.9829 20.6161C39.1984 21.8104 39.3129 22.9955 39.3265 24.1577C39.3303 24.4791 39.3322 24.6399 39.2281 24.7452C39.1239 24.8505 38.9592 24.8505 38.6297 24.8505H15.8014C15.4719 24.8505 15.3072 24.8505 15.2031 24.7452C15.099 24.6399 15.1009 24.4792 15.1046 24.1578C15.1181 22.9956 15.2324 21.8105 15.4478 20.6161C15.5078 20.2831 15.5703 19.9359 15.6435 19.6795C15.7242 19.397 15.8457 19.1017 16.0824 18.8386C16.346 18.5458 16.7173 18.378 17.0298 18.2555C17.3618 18.1254 17.8301 17.976 18.3587 17.8073C19.2587 17.5202 20.0783 17.0681 21.003 16.558C21.381 16.3495 21.7765 16.1313 22.2023 15.9107Z" fill="#78B8FA"/>
<path d="M29.4388 39.4079C28.6709 39.7019 28.1055 39.9185 27.2178 39.9185C26.3302 39.9185 25.7647 39.7019 24.9967 39.4079C21.4947 38.0671 18.9196 35.7826 17.276 32.9392C17.0281 32.5103 16.9042 32.2959 17.0065 32.1186C17.1089 31.9413 17.365 31.9413 17.8773 31.9413H36.5565C37.0688 31.9413 37.3247 31.9413 37.4271 32.1185C37.5294 32.2959 37.4056 32.5103 37.1579 32.9391C35.515 35.7825 32.9407 38.067 29.4388 39.4079Z" fill="#78B8FA"/>
</g>
</g>
<defs>
<filter id="filter0_d_1_546" x="0" y="0" width="54" height="54" filterUnits="userSpaceOnUse" color-interpolation-filters="sRGB">
<feFlood flood-opacity="0" result="BackgroundImageFix"/>
<feColorMatrix in="SourceAlpha" type="matrix" values="0 0 0 0 0 0 0 0 0 0 0 0 0 0 0 0 0 0 127 0" result="hardAlpha"/>
<feMorphology radius="1" operator="dilate" in="SourceAlpha" result="effect1_dropShadow_1_546"/>
<feOffset/>
<feComposite in2="hardAlpha" operator="out"/>
<feColorMatrix type="matrix" values="0 0 0 0 0.176471 0 0 0 0 0.180392 0 0 0 0 0.282353 0 0 0 1 0"/>
<feBlend mode="normal" in2="BackgroundImageFix" result="effect1_dropShadow_1_546"/>
<feBlend mode="normal" in="SourceGraphic" in2="effect1_dropShadow_1_546" result="shape"/>
</filter>
<filter id="filter1_f_1_546" x="4.39985" y="4.39985" width="48.2" height="48.2" filterUnits="userSpaceOnUse" color-interpolation-filters="sRGB">
<feFlood flood-opacity="0" result="BackgroundImageFix"/>
<feBlend mode="normal" in="SourceGraphic" in2="BackgroundImageFix" result="shape"/>
<feGaussianBlur stdDeviation="8.8" result="effect1_foregroundBlur_1_546"/>
</filter>
</defs>
</svg>
