<svg width="54" height="54" viewBox="0 0 54 54" fill="none" xmlns="http://www.w3.org/2000/svg">
<g filter="url(#filter0_d_1_569)">
<rect x="1" y="1" width="52" height="52" rx="16" fill="white" fill-opacity="0.07" shape-rendering="crispEdges"/>
<path d="M40.0002 29.0374C40.2181 29.6527 39.896 30.3281 39.2807 30.546C38.6501 30.7694 37.9215 31.2503 37.1496 31.9271C36.3901 32.5932 35.6513 33.3933 34.9968 34.1777C34.3447 34.9595 33.7907 35.7084 33.3995 36.2627C33.2043 36.5393 33.0506 36.7658 32.9466 36.9219L32.7928 37.1566C32.5643 37.516 32.1601 37.725 31.7348 37.7032C31.3095 37.6814 30.9287 37.4324 30.7382 37.0515C30.2173 36.0098 29.7502 35.5951 29.5147 35.438C29.415 35.3716 29.3478 35.345 29.3209 35.3359C28.7201 35.2801 28.2498 34.7747 28.2498 34.1593C28.2498 33.5066 28.7789 32.9775 29.4317 32.9775C29.529 32.9784 29.7708 32.9962 29.9595 33.0599C30.205 33.1301 30.5016 33.2552 30.8259 33.4714C31.1499 33.6875 31.4899 33.9862 31.8312 34.395C32.2036 33.8858 32.6628 33.2859 33.1818 32.6636C33.883 31.8231 34.7084 30.9242 35.5912 30.15C36.4618 29.3865 37.4538 28.6855 38.4916 28.3179C39.1069 28.1001 39.7823 28.4222 40.0002 29.0374Z" fill="#94E52F"/>
<path opacity="0.4" d="M25.2368 37.408C23.0634 37.408 21.3566 37.4081 20.011 37.2561C18.6375 37.1009 17.5237 36.7774 16.5979 36.0462C16.3208 35.8274 16.0638 35.5856 15.8302 35.3236C15.0429 34.4405 14.6913 33.3701 14.5238 32.057C14.3612 30.7812 14.3612 29.1669 14.3612 27.1294V27.0049C14.3612 26.3244 14.3612 25.691 14.3672 25.1019C14.3706 24.7761 14.3722 24.6132 14.4759 24.5106C14.5795 24.4081 14.7436 24.4081 15.0719 24.4081H39.0595C39.3878 24.4081 39.552 24.4081 39.6556 24.5106C39.7591 24.6132 39.7609 24.7761 39.7642 25.1019C39.766 25.2788 39.7673 25.4598 39.7682 25.6447C39.7701 26.049 39.7711 26.2512 39.67 26.3551C39.569 26.459 39.3182 26.4648 38.8168 26.4762C38.5111 26.4832 38.2014 26.5382 37.8975 26.6458C36.5546 27.1214 35.365 27.9873 34.4202 28.816C33.4449 29.6713 32.5545 30.6443 31.8184 31.5268C31.754 31.6039 31.7218 31.6425 31.6909 31.6663C31.6 31.7364 31.5034 31.7569 31.3919 31.7302C31.3539 31.721 31.3036 31.6964 31.203 31.6473C30.9521 31.5246 30.7093 31.4322 30.4792 31.3643C30.0518 31.2282 29.6225 31.2053 29.4466 31.2036L29.4293 31.2035C27.7976 31.2035 26.4748 32.5263 26.4748 34.1581C26.4748 35.4825 27.3453 36.6022 28.5462 36.978L28.5516 36.9796C28.5919 36.9923 28.6154 36.9996 28.6438 37.0331C28.7675 37.1784 28.6645 37.408 28.4736 37.408H25.2368Z" fill="#94E52F"/>
<path d="M28.8971 16.7262C31.0705 16.7262 32.7774 16.7262 34.123 16.8782C35.4965 17.0334 36.6103 17.3569 37.536 18.088C37.8132 18.3069 38.0702 18.5486 38.3038 18.8107C39.0911 19.6938 39.4426 20.7641 39.6101 22.0773C39.6293 22.2284 39.639 22.304 39.6216 22.3703C39.594 22.4764 39.5126 22.5688 39.4109 22.6097C39.3472 22.6353 39.2676 22.6353 39.1083 22.6353H15.0281C14.8688 22.6353 14.7892 22.6353 14.7255 22.6097C14.6238 22.5688 14.5424 22.4764 14.5147 22.3703C14.4974 22.304 14.5071 22.2284 14.5263 22.0773C14.6938 20.7641 15.0453 19.6938 15.8327 18.8107C16.0663 18.5486 16.3233 18.3069 16.6004 18.088C17.5262 17.3569 18.64 17.0334 20.0135 16.8782C21.3591 16.7262 23.0659 16.7262 25.2393 16.7262H28.8971Z" fill="#94E52F"/>
<g filter="url(#filter1_f_1_569)">
<circle cx="28.4998" cy="28.4998" r="6.5" fill="#95E430"/>
</g>
</g>
<defs>
<filter id="filter0_d_1_569" x="0" y="0" width="54" height="54" filterUnits="userSpaceOnUse" color-interpolation-filters="sRGB">
<feFlood flood-opacity="0" result="BackgroundImageFix"/>
<feColorMatrix in="SourceAlpha" type="matrix" values="0 0 0 0 0 0 0 0 0 0 0 0 0 0 0 0 0 0 127 0" result="hardAlpha"/>
<feMorphology radius="1" operator="dilate" in="SourceAlpha" result="effect1_dropShadow_1_569"/>
<feOffset/>
<feComposite in2="hardAlpha" operator="out"/>
<feColorMatrix type="matrix" values="0 0 0 0 0.176471 0 0 0 0 0.180392 0 0 0 0 0.282353 0 0 0 1 0"/>
<feBlend mode="normal" in2="BackgroundImageFix" result="effect1_dropShadow_1_569"/>
<feBlend mode="normal" in="SourceGraphic" in2="effect1_dropShadow_1_569" result="shape"/>
</filter>
<filter id="filter1_f_1_569" x="4.39985" y="4.39985" width="48.2" height="48.2" filterUnits="userSpaceOnUse" color-interpolation-filters="sRGB">
<feFlood flood-opacity="0" result="BackgroundImageFix"/>
<feBlend mode="normal" in="SourceGraphic" in2="BackgroundImageFix" result="shape"/>
<feGaussianBlur stdDeviation="8.8" result="effect1_foregroundBlur_1_569"/>
</filter>
</defs>
</svg>
